<mxfile host="Electron" modified="2025-01-09T06:22:32.675Z" agent="Mozilla/5.0 (Windows NT 10.0; Win64; x64) AppleWebKit/537.36 (KHTML, like Gecko) draw.io/24.0.4 Chrome/120.0.6099.109 Electron/28.1.0 Safari/537.36" etag="J5e4Lm4HNXWq2UYtMhDf" version="24.0.4" type="device">
  <diagram name="Page-1" id="6LG3iJq92wEXlzjQ6QG9">
    <mxGraphModel dx="1050" dy="629" grid="1" gridSize="10" guides="1" tooltips="1" connect="1" arrows="1" fold="1" page="1" pageScale="1" pageWidth="1654" pageHeight="2336" math="0" shadow="0">
      <root>
        <mxCell id="0" />
        <mxCell id="1" parent="0" />
        <mxCell id="yhVTB9En8Y7k1_pd-SdG-1" value="AWS Cloud" style="points=[[0,0],[0.25,0],[0.5,0],[0.75,0],[1,0],[1,0.25],[1,0.5],[1,0.75],[1,1],[0.75,1],[0.5,1],[0.25,1],[0,1],[0,0.75],[0,0.5],[0,0.25]];outlineConnect=0;gradientColor=none;html=1;whiteSpace=wrap;fontSize=12;fontStyle=0;container=1;pointerEvents=0;collapsible=0;recursiveResize=0;shape=mxgraph.aws4.group;grIcon=mxgraph.aws4.group_aws_cloud_alt;strokeColor=#232F3E;fillColor=none;verticalAlign=top;align=left;spacingLeft=30;fontColor=#232F3E;dashed=0;" vertex="1" parent="1">
          <mxGeometry x="360" y="120" width="920" height="520" as="geometry" />
        </mxCell>
        <mxCell id="yhVTB9En8Y7k1_pd-SdG-2" value="" style="sketch=0;points=[[0,0,0],[0.25,0,0],[0.5,0,0],[0.75,0,0],[1,0,0],[0,1,0],[0.25,1,0],[0.5,1,0],[0.75,1,0],[1,1,0],[0,0.25,0],[0,0.5,0],[0,0.75,0],[1,0.25,0],[1,0.5,0],[1,0.75,0]];outlineConnect=0;fontColor=#232F3E;fillColor=#E7157B;strokeColor=#ffffff;dashed=0;verticalLabelPosition=bottom;verticalAlign=top;align=center;html=1;fontSize=12;fontStyle=0;aspect=fixed;shape=mxgraph.aws4.resourceIcon;resIcon=mxgraph.aws4.api_gateway;" vertex="1" parent="yhVTB9En8Y7k1_pd-SdG-1">
          <mxGeometry x="200" y="160" width="78" height="78" as="geometry" />
        </mxCell>
        <mxCell id="yhVTB9En8Y7k1_pd-SdG-3" value="" style="sketch=0;points=[[0,0,0],[0.25,0,0],[0.5,0,0],[0.75,0,0],[1,0,0],[0,1,0],[0.25,1,0],[0.5,1,0],[0.75,1,0],[1,1,0],[0,0.25,0],[0,0.5,0],[0,0.75,0],[1,0.25,0],[1,0.5,0],[1,0.75,0]];outlineConnect=0;fontColor=#232F3E;fillColor=#ED7100;strokeColor=#ffffff;dashed=0;verticalLabelPosition=bottom;verticalAlign=top;align=center;html=1;fontSize=12;fontStyle=0;aspect=fixed;shape=mxgraph.aws4.resourceIcon;resIcon=mxgraph.aws4.lambda;" vertex="1" parent="yhVTB9En8Y7k1_pd-SdG-1">
          <mxGeometry x="400" y="160" width="78" height="78" as="geometry" />
        </mxCell>
        <mxCell id="yhVTB9En8Y7k1_pd-SdG-4" value="" style="sketch=0;points=[[0,0,0],[0.25,0,0],[0.5,0,0],[0.75,0,0],[1,0,0],[0,1,0],[0.25,1,0],[0.5,1,0],[0.75,1,0],[1,1,0],[0,0.25,0],[0,0.5,0],[0,0.75,0],[1,0.25,0],[1,0.5,0],[1,0.75,0]];outlineConnect=0;fontColor=#232F3E;fillColor=#7AA116;strokeColor=#ffffff;dashed=0;verticalLabelPosition=bottom;verticalAlign=top;align=center;html=1;fontSize=12;fontStyle=0;aspect=fixed;shape=mxgraph.aws4.resourceIcon;resIcon=mxgraph.aws4.s3;" vertex="1" parent="yhVTB9En8Y7k1_pd-SdG-1">
          <mxGeometry x="800" y="320" width="78" height="78" as="geometry" />
        </mxCell>
        <mxCell id="yhVTB9En8Y7k1_pd-SdG-5" value="" style="sketch=0;points=[[0,0,0],[0.25,0,0],[0.5,0,0],[0.75,0,0],[1,0,0],[0,1,0],[0.25,1,0],[0.5,1,0],[0.75,1,0],[1,1,0],[0,0.25,0],[0,0.5,0],[0,0.75,0],[1,0.25,0],[1,0.5,0],[1,0.75,0]];outlineConnect=0;fontColor=#232F3E;fillColor=#ED7100;strokeColor=#ffffff;dashed=0;verticalLabelPosition=bottom;verticalAlign=top;align=center;html=1;fontSize=12;fontStyle=0;aspect=fixed;shape=mxgraph.aws4.resourceIcon;resIcon=mxgraph.aws4.lambda;" vertex="1" parent="yhVTB9En8Y7k1_pd-SdG-1">
          <mxGeometry x="400" y="320" width="78" height="78" as="geometry" />
        </mxCell>
        <mxCell id="yhVTB9En8Y7k1_pd-SdG-6" value="" style="sketch=0;points=[[0,0,0],[0.25,0,0],[0.5,0,0],[0.75,0,0],[1,0,0],[0,1,0],[0.25,1,0],[0.5,1,0],[0.75,1,0],[1,1,0],[0,0.25,0],[0,0.5,0],[0,0.75,0],[1,0.25,0],[1,0.5,0],[1,0.75,0]];outlineConnect=0;fontColor=#232F3E;fillColor=#C925D1;strokeColor=#ffffff;dashed=0;verticalLabelPosition=bottom;verticalAlign=top;align=center;html=1;fontSize=12;fontStyle=0;aspect=fixed;shape=mxgraph.aws4.resourceIcon;resIcon=mxgraph.aws4.dynamodb;" vertex="1" parent="yhVTB9En8Y7k1_pd-SdG-1">
          <mxGeometry x="600" y="160" width="78" height="78" as="geometry" />
        </mxCell>
        <mxCell id="yhVTB9En8Y7k1_pd-SdG-9" value="" style="sketch=0;points=[[0,0,0],[0.25,0,0],[0.5,0,0],[0.75,0,0],[1,0,0],[0,1,0],[0.25,1,0],[0.5,1,0],[0.75,1,0],[1,1,0],[0,0.25,0],[0,0.5,0],[0,0.75,0],[1,0.25,0],[1,0.5,0],[1,0.75,0]];outlineConnect=0;fontColor=#232F3E;fillColor=#01A88D;strokeColor=#ffffff;dashed=0;verticalLabelPosition=bottom;verticalAlign=top;align=center;html=1;fontSize=12;fontStyle=0;aspect=fixed;shape=mxgraph.aws4.resourceIcon;resIcon=mxgraph.aws4.bedrock;" vertex="1" parent="yhVTB9En8Y7k1_pd-SdG-1">
          <mxGeometry x="600" y="320" width="78" height="78" as="geometry" />
        </mxCell>
        <mxCell id="yhVTB9En8Y7k1_pd-SdG-10" style="edgeStyle=orthogonalEdgeStyle;rounded=0;orthogonalLoop=1;jettySize=auto;html=1;entryX=0;entryY=0.5;entryDx=0;entryDy=0;entryPerimeter=0;fontSize=18;" edge="1" parent="yhVTB9En8Y7k1_pd-SdG-1">
          <mxGeometry relative="1" as="geometry">
            <mxPoint x="278" y="180" as="sourcePoint" />
            <mxPoint x="400" y="180" as="targetPoint" />
            <Array as="points">
              <mxPoint x="310" y="180" />
              <mxPoint x="310" y="180" />
            </Array>
          </mxGeometry>
        </mxCell>
        <mxCell id="yhVTB9En8Y7k1_pd-SdG-11" style="edgeStyle=orthogonalEdgeStyle;rounded=0;orthogonalLoop=1;jettySize=auto;html=1;entryX=0;entryY=0.5;entryDx=0;entryDy=0;entryPerimeter=0;fontSize=18;" edge="1" parent="yhVTB9En8Y7k1_pd-SdG-1">
          <mxGeometry relative="1" as="geometry">
            <mxPoint x="478" y="180" as="sourcePoint" />
            <mxPoint x="600" y="180" as="targetPoint" />
            <Array as="points">
              <mxPoint x="510" y="180" />
              <mxPoint x="510" y="180" />
            </Array>
          </mxGeometry>
        </mxCell>
        <mxCell id="yhVTB9En8Y7k1_pd-SdG-12" style="edgeStyle=orthogonalEdgeStyle;rounded=0;orthogonalLoop=1;jettySize=auto;html=1;entryX=0;entryY=0.5;entryDx=0;entryDy=0;entryPerimeter=0;fontSize=18;" edge="1" parent="yhVTB9En8Y7k1_pd-SdG-1">
          <mxGeometry relative="1" as="geometry">
            <mxPoint x="478" y="358.5" as="sourcePoint" />
            <mxPoint x="600" y="358.5" as="targetPoint" />
            <Array as="points">
              <mxPoint x="510" y="358.5" />
              <mxPoint x="510" y="358.5" />
            </Array>
          </mxGeometry>
        </mxCell>
        <mxCell id="yhVTB9En8Y7k1_pd-SdG-13" style="edgeStyle=orthogonalEdgeStyle;rounded=0;orthogonalLoop=1;jettySize=auto;html=1;entryX=0.5;entryY=0;entryDx=0;entryDy=0;entryPerimeter=0;fontSize=18;" edge="1" parent="yhVTB9En8Y7k1_pd-SdG-1" target="yhVTB9En8Y7k1_pd-SdG-5">
          <mxGeometry relative="1" as="geometry">
            <mxPoint x="440" y="238.5" as="sourcePoint" />
            <mxPoint x="562" y="238.5" as="targetPoint" />
            <Array as="points">
              <mxPoint x="439" y="239" />
            </Array>
          </mxGeometry>
        </mxCell>
        <mxCell id="yhVTB9En8Y7k1_pd-SdG-14" style="edgeStyle=orthogonalEdgeStyle;rounded=0;orthogonalLoop=1;jettySize=auto;html=1;entryX=0;entryY=0.5;entryDx=0;entryDy=0;entryPerimeter=0;fontSize=18;" edge="1" parent="yhVTB9En8Y7k1_pd-SdG-1">
          <mxGeometry relative="1" as="geometry">
            <mxPoint x="678" y="358.5" as="sourcePoint" />
            <mxPoint x="800" y="358.5" as="targetPoint" />
            <Array as="points">
              <mxPoint x="710" y="358.5" />
              <mxPoint x="710" y="358.5" />
            </Array>
          </mxGeometry>
        </mxCell>
        <mxCell id="yhVTB9En8Y7k1_pd-SdG-18" style="edgeStyle=orthogonalEdgeStyle;rounded=0;orthogonalLoop=1;jettySize=auto;html=1;fontSize=18;" edge="1" parent="yhVTB9En8Y7k1_pd-SdG-1">
          <mxGeometry relative="1" as="geometry">
            <mxPoint x="280" y="229" as="sourcePoint" />
            <mxPoint x="400" y="229" as="targetPoint" />
            <Array as="points">
              <mxPoint x="400" y="229" />
            </Array>
          </mxGeometry>
        </mxCell>
        <mxCell id="yhVTB9En8Y7k1_pd-SdG-22" value="" style="edgeStyle=orthogonalEdgeStyle;rounded=0;orthogonalLoop=1;jettySize=auto;html=1;" edge="1" parent="yhVTB9En8Y7k1_pd-SdG-1" source="yhVTB9En8Y7k1_pd-SdG-20" target="yhVTB9En8Y7k1_pd-SdG-2">
          <mxGeometry relative="1" as="geometry">
            <Array as="points">
              <mxPoint x="130" y="180" />
              <mxPoint x="130" y="180" />
            </Array>
          </mxGeometry>
        </mxCell>
        <mxCell id="yhVTB9En8Y7k1_pd-SdG-20" value="Client" style="sketch=0;outlineConnect=0;fontColor=#232F3E;gradientColor=none;strokeColor=#232F3E;fillColor=#ffffff;dashed=0;verticalLabelPosition=bottom;verticalAlign=top;align=center;html=1;fontSize=12;fontStyle=0;aspect=fixed;shape=mxgraph.aws4.resourceIcon;resIcon=mxgraph.aws4.client;" vertex="1" parent="yhVTB9En8Y7k1_pd-SdG-1">
          <mxGeometry x="20" y="169" width="60" height="60" as="geometry" />
        </mxCell>
        <mxCell id="yhVTB9En8Y7k1_pd-SdG-21" style="edgeStyle=orthogonalEdgeStyle;rounded=0;orthogonalLoop=1;jettySize=auto;html=1;entryX=0;entryY=0.5;entryDx=0;entryDy=0;entryPerimeter=0;fontSize=18;" edge="1" parent="yhVTB9En8Y7k1_pd-SdG-1">
          <mxGeometry relative="1" as="geometry">
            <mxPoint x="80" y="220" as="sourcePoint" />
            <mxPoint x="202" y="220" as="targetPoint" />
            <Array as="points">
              <mxPoint x="112" y="220" />
              <mxPoint x="112" y="220" />
            </Array>
          </mxGeometry>
        </mxCell>
        <mxCell id="yhVTB9En8Y7k1_pd-SdG-23" value="&lt;font style=&quot;font-size: 11px;&quot;&gt;POST /reel_gen&lt;/font&gt;" style="text;html=1;align=center;verticalAlign=middle;whiteSpace=wrap;rounded=0;" vertex="1" parent="yhVTB9En8Y7k1_pd-SdG-1">
          <mxGeometry x="90" y="150" width="90" height="30" as="geometry" />
        </mxCell>
        <mxCell id="yhVTB9En8Y7k1_pd-SdG-24" value="&lt;font style=&quot;font-size: 11px;&quot;&gt;GET /status/{jobId}&lt;/font&gt;" style="text;html=1;align=center;verticalAlign=middle;whiteSpace=wrap;rounded=0;" vertex="1" parent="yhVTB9En8Y7k1_pd-SdG-1">
          <mxGeometry x="80" y="220" width="110" height="40" as="geometry" />
        </mxCell>
        <mxCell id="yhVTB9En8Y7k1_pd-SdG-25" value="&lt;font style=&quot;font-size: 11px;&quot;&gt;(status check)&lt;/font&gt;" style="text;html=1;align=center;verticalAlign=middle;whiteSpace=wrap;rounded=0;" vertex="1" parent="yhVTB9En8Y7k1_pd-SdG-1">
          <mxGeometry x="284" y="220" width="110" height="40" as="geometry" />
        </mxCell>
        <mxCell id="yhVTB9En8Y7k1_pd-SdG-26" value="&lt;font style=&quot;font-size: 11px;&quot;&gt;(get status)&lt;/font&gt;" style="text;html=1;align=center;verticalAlign=middle;whiteSpace=wrap;rounded=0;" vertex="1" parent="yhVTB9En8Y7k1_pd-SdG-1">
          <mxGeometry x="484" y="220" width="110" height="30" as="geometry" />
        </mxCell>
        <mxCell id="yhVTB9En8Y7k1_pd-SdG-27" value="&lt;font style=&quot;font-size: 13px;&quot;&gt;AWS Lambda &lt;/font&gt;&lt;font style=&quot;font-size: 11px;&quot;&gt;(Submit Function)&lt;/font&gt;&lt;div&gt;&lt;font style=&quot;font-size: 11px;&quot;&gt;&lt;br&gt;&lt;/font&gt;&lt;/div&gt;" style="text;html=1;align=center;verticalAlign=middle;whiteSpace=wrap;rounded=0;" vertex="1" parent="yhVTB9En8Y7k1_pd-SdG-1">
          <mxGeometry x="381" y="109" width="116" height="60" as="geometry" />
        </mxCell>
        <mxCell id="yhVTB9En8Y7k1_pd-SdG-35" style="edgeStyle=orthogonalEdgeStyle;rounded=0;orthogonalLoop=1;jettySize=auto;html=1;entryX=0;entryY=0.5;entryDx=0;entryDy=0;entryPerimeter=0;fontSize=18;" edge="1" parent="yhVTB9En8Y7k1_pd-SdG-1">
          <mxGeometry relative="1" as="geometry">
            <mxPoint x="478" y="220" as="sourcePoint" />
            <mxPoint x="600" y="220" as="targetPoint" />
            <Array as="points">
              <mxPoint x="510" y="220" />
              <mxPoint x="510" y="220" />
            </Array>
          </mxGeometry>
        </mxCell>
        <mxCell id="yhVTB9En8Y7k1_pd-SdG-36" value="&lt;font style=&quot;font-size: 11px;&quot;&gt;(reel request)&lt;/font&gt;" style="text;html=1;align=center;verticalAlign=middle;whiteSpace=wrap;rounded=0;" vertex="1" parent="yhVTB9En8Y7k1_pd-SdG-1">
          <mxGeometry x="284" y="145" width="110" height="40" as="geometry" />
        </mxCell>
        <mxCell id="yhVTB9En8Y7k1_pd-SdG-37" value="&lt;font style=&quot;font-size: 11px;&quot;&gt;(create job entry)&lt;/font&gt;" style="text;html=1;align=center;verticalAlign=middle;whiteSpace=wrap;rounded=0;" vertex="1" parent="yhVTB9En8Y7k1_pd-SdG-1">
          <mxGeometry x="478" y="145" width="110" height="40" as="geometry" />
        </mxCell>
        <mxCell id="yhVTB9En8Y7k1_pd-SdG-38" value="&lt;font style=&quot;font-size: 11px;&quot;&gt;(Invoke)&lt;/font&gt;" style="text;html=1;align=center;verticalAlign=middle;whiteSpace=wrap;rounded=0;" vertex="1" parent="yhVTB9En8Y7k1_pd-SdG-1">
          <mxGeometry x="357" y="260" width="110" height="40" as="geometry" />
        </mxCell>
        <mxCell id="yhVTB9En8Y7k1_pd-SdG-39" value="&lt;font style=&quot;font-size: 11px;&quot;&gt;(generate reel)&lt;/font&gt;" style="text;html=1;align=center;verticalAlign=middle;whiteSpace=wrap;rounded=0;" vertex="1" parent="yhVTB9En8Y7k1_pd-SdG-1">
          <mxGeometry x="484" y="350" width="110" height="40" as="geometry" />
        </mxCell>
        <mxCell id="yhVTB9En8Y7k1_pd-SdG-40" value="&lt;font style=&quot;font-size: 11px;&quot;&gt;(store reel)&lt;/font&gt;" style="text;html=1;align=center;verticalAlign=middle;whiteSpace=wrap;rounded=0;" vertex="1" parent="yhVTB9En8Y7k1_pd-SdG-1">
          <mxGeometry x="678" y="350" width="110" height="40" as="geometry" />
        </mxCell>
        <mxCell id="yhVTB9En8Y7k1_pd-SdG-41" value="" style="endArrow=classic;html=1;rounded=0;" edge="1" parent="yhVTB9En8Y7k1_pd-SdG-1">
          <mxGeometry width="50" height="50" relative="1" as="geometry">
            <mxPoint x="470" y="320" as="sourcePoint" />
            <mxPoint x="638" y="238" as="targetPoint" />
            <Array as="points">
              <mxPoint x="470" y="280" />
              <mxPoint x="640" y="280" />
            </Array>
          </mxGeometry>
        </mxCell>
        <mxCell id="yhVTB9En8Y7k1_pd-SdG-42" value="&lt;font style=&quot;font-size: 11px;&quot;&gt;(update status)&lt;/font&gt;" style="text;html=1;align=center;verticalAlign=middle;whiteSpace=wrap;rounded=0;" vertex="1" parent="yhVTB9En8Y7k1_pd-SdG-1">
          <mxGeometry x="490" y="280" width="110" height="30" as="geometry" />
        </mxCell>
        <mxCell id="yhVTB9En8Y7k1_pd-SdG-43" value="&lt;font style=&quot;&quot;&gt;&lt;span style=&quot;font-size: 13px;&quot;&gt;API Gateway&amp;nbsp;&lt;/span&gt;&lt;br&gt;&lt;font style=&quot;font-size: 11px;&quot;&gt;(reel API)&lt;/font&gt;&lt;/font&gt;" style="text;html=1;align=center;verticalAlign=middle;whiteSpace=wrap;rounded=0;" vertex="1" parent="yhVTB9En8Y7k1_pd-SdG-1">
          <mxGeometry x="184" y="238" width="110" height="40" as="geometry" />
        </mxCell>
        <mxCell id="yhVTB9En8Y7k1_pd-SdG-44" value="&lt;font style=&quot;font-size: 13px;&quot;&gt;AWS Lambda &lt;/font&gt;&lt;font style=&quot;font-size: 11px;&quot;&gt;(Process function)&lt;/font&gt;&lt;div&gt;&lt;font style=&quot;font-size: 11px;&quot;&gt;&lt;br&gt;&lt;/font&gt;&lt;/div&gt;" style="text;html=1;align=center;verticalAlign=middle;whiteSpace=wrap;rounded=0;" vertex="1" parent="yhVTB9En8Y7k1_pd-SdG-1">
          <mxGeometry x="386" y="410" width="104" height="40" as="geometry" />
        </mxCell>
        <mxCell id="yhVTB9En8Y7k1_pd-SdG-45" value="&lt;div&gt;&lt;font style=&quot;font-size: 13px;&quot;&gt;Amazon Dynamodb &lt;/font&gt;&lt;font style=&quot;font-size: 11px;&quot;&gt;(JobTracking)&lt;/font&gt;&lt;/div&gt;" style="text;html=1;align=center;verticalAlign=middle;whiteSpace=wrap;rounded=0;" vertex="1" parent="yhVTB9En8Y7k1_pd-SdG-1">
          <mxGeometry x="579" y="110" width="132" height="40" as="geometry" />
        </mxCell>
        <mxCell id="yhVTB9En8Y7k1_pd-SdG-46" value="&lt;div&gt;&lt;font style=&quot;font-size: 13px;&quot;&gt;Amazon Bedrock&amp;nbsp;&lt;br&gt;&lt;/font&gt;&lt;font style=&quot;font-size: 11px;&quot;&gt;(Nova Reel)&lt;/font&gt;&lt;/div&gt;" style="text;html=1;align=center;verticalAlign=middle;whiteSpace=wrap;rounded=0;" vertex="1" parent="yhVTB9En8Y7k1_pd-SdG-1">
          <mxGeometry x="579" y="400" width="120" height="40" as="geometry" />
        </mxCell>
        <mxCell id="yhVTB9En8Y7k1_pd-SdG-47" value="&lt;font style=&quot;font-size: 13px;&quot;&gt;Amazon S3&lt;/font&gt;" style="text;html=1;align=center;verticalAlign=middle;whiteSpace=wrap;rounded=0;" vertex="1" parent="yhVTB9En8Y7k1_pd-SdG-1">
          <mxGeometry x="770" y="398" width="120" height="40" as="geometry" />
        </mxCell>
      </root>
    </mxGraphModel>
  </diagram>
</mxfile>
